# xmcd CD database file
#
# Track frame offsets:
#	150
#	36268
#	85993
#	126332
#	147331
#	180552
#	211892
#	268237
#
# Disc length: 3795 seconds
#
# Revision: 0
# Processed by: cddbd v1.5.1PL0 Copyright (c) Steve Scherf et al.
# Submitted via: CDex 1.51
#
DISCID=770ed108
DTITLE=SLAJO - SLAJO
DYEAR=2005
DGENRE=Jazz
TTITLE0=Blue Train
TTITLE1=Balancing Act
TTITLE2=Vultures
TTITLE3=A Very Special War With G Dubs
TTITLE4=Afterworld
TTITLE5=Smells Like Teen Spirit
TTITLE6=Entrance
TTITLE7=Wreckweeum
EXTD=YEAR: 2005
EXTT0=
EXTT1=
EXTT2=
EXTT3=
EXTT4=
EXTT5=
EXTT6=
EXTT7=
PLAYORDER=
